<?xml version="1.0" encoding="UTF-8" standalone="no"?>
<svg width="156px" height="156px" viewBox="0 0 156 156" version="1.1" xmlns="http://www.w3.org/2000/svg" xmlns:xlink="http://www.w3.org/1999/xlink" xmlns:sketch="http://www.bohemiancoding.com/sketch/ns">
    <title>anonymous</title>
    <description>Created with Sketch (http://www.bohemiancoding.com/sketch)</description>
    <defs></defs>
    <g id="Page-1" stroke="none" stroke-width="1" fill="none" fill-rule="evenodd" sketch:type="MSPage">
        <path d="M8.00006973,156 L0,156 L0,0 L156,0 L156,156 L148.99993,156 C148.960467,129.26652 134.073734,109.068695 112.152521,99.0371331 C119.501673,91.1737311 124,80.6121861 124,69 C124,44.6994698 104.30053,25 80,25 C55.6994698,25 36,44.6994698 36,69 C36,80.1554745 40.1514435,90.3413268 46.9936741,98.0969005 C23.903565,107.77057 8.04080746,128.402919 8.00007861,156 Z" id="Rectangle-1" opacity="0.0674715909" fill="#000000" sketch:type="MSShapeGroup"></path>
        <path d="M68.9130859,68.9995117 L55.2246094,68.9995117 C55.1549476,62.2771474 57.4537527,56.7217016 62.1210938,52.3330078 C66.7884348,47.944314 72.935997,45.75 80.5639648,45.75 C85.4751222,45.75 89.6547679,46.6555899 93.1030273,48.4667969 C96.5512868,50.2780038 99.3115945,52.8902824 101.384033,56.3037109 C103.456472,59.7171395 104.492676,63.3046687 104.492676,67.0664062 C104.492676,69.1214295 104.161787,71.1415916 103.5,73.1269531 C102.838213,75.1123146 101.793301,77.1498919 100.365234,79.2397461 C99.5292927,80.4588277 97.5265458,82.5138202 94.3569336,85.4047852 C91.326645,88.1564265 89.4283892,90.0982203 88.6621094,91.2302246 C87.8958295,92.362229 87.2514675,93.8686429 86.7290039,95.7495117 C86.2065404,97.6303805 85.8756517,100.242659 85.7363281,103.586426 L71.5776367,103.586426 L71.5253906,101.235352 C71.5253906,96.5680105 72.378735,92.3274116 74.0854492,88.5134277 C75.7921635,84.6994438 78.5611788,81.1206222 82.3925781,77.7768555 C86.0846539,74.5375815 88.3137983,72.3084371 89.0800781,71.0893555 C89.846358,69.8702739 90.2294922,68.4422282 90.2294922,66.8051758 C90.2294922,64.575998 89.2977795,62.6864498 87.4343262,61.1364746 C85.5708728,59.5864994 83.071793,58.8115234 79.9370117,58.8115234 C76.7325686,58.8115234 74.1028749,59.7606513 72.0478516,61.6589355 C69.9928283,63.5572198 68.9479168,66.004054 68.9130859,68.9995117 Z M78.8920898,109.54248 C81.4347458,109.54248 83.602937,110.41324 85.3967285,112.154785 C87.19052,113.89633 88.0874023,116.003568 88.0874023,118.476562 C88.0874023,120.949557 87.1992276,123.065502 85.4228516,124.824463 C83.6464755,126.583424 81.5044071,127.462891 78.996582,127.462891 C76.488757,127.462891 74.3553962,126.583424 72.5964355,124.824463 C70.8374749,123.065502 69.9580078,120.949557 69.9580078,118.476562 C69.9580078,116.003568 70.8287673,113.89633 72.5703125,112.154785 C74.3118577,110.41324 76.4190957,109.54248 78.8920898,109.54248 Z" id="?" opacity="0.131463068" fill="#000000" sketch:type="MSShapeGroup"></path>
    </g>
</svg>