<?xml version="1.0" encoding="UTF-8"?>
<svg width="56px" height="39px" viewBox="0 0 56 39" version="1.1" xmlns="http://www.w3.org/2000/svg" xmlns:xlink="http://www.w3.org/1999/xlink">
    <!-- Generator: Sketch 49 (51002) - http://www.bohemiancoding.com/sketch -->
    <title>ac-logo-dark</title>
    <desc>Created with Sketch.</desc>
    <defs></defs>
    <g id="Symbols" stroke="none" stroke-width="1" fill="none" fill-rule="evenodd">
        <g id="_ui/ac-logo" transform="translate(-19.000000, -9.000000)" fill="#37404D">
            <g id="ac-logo" transform="translate(19.000000, 9.000000)">
                <g id="dark">
                    <path d="M31.2249095,22.2169771 L33.360568,19.691669 C33.4038582,19.6404805 33.4454204,19.5878554 33.4851846,19.5338823 C34.4679425,18.1999544 34.1832631,16.3219096 32.8493318,15.3391563 C30.5351095,13.6341762 28.8798444,12.4906853 27.8835364,11.9086836 C26.5092974,11.1059103 24.7641717,11.3478988 23.6602173,12.4943118 L19.1930708,17.1332744 C18.6473949,17.6999372 18.5755362,18.5722305 19.0211228,19.2205525 C19.0607597,19.2782236 19.1057178,19.3320503 19.1554067,19.3813255 C19.5943243,19.8165898 20.3029888,19.8136281 20.7382531,19.3747104 L25.1274552,14.9486668 C25.7275358,14.3435494 26.6585416,14.2153075 27.3998748,14.6356511 C27.4596774,14.6695598 27.5165015,14.7084709 27.5697385,14.7519677 C28.090626,15.177554 28.1678828,15.9448227 27.7422965,16.4657102 L25.046389,19.7653098 C24.9816668,19.8445252 24.9266517,19.9307439 24.8822397,20.0221056 C25.0862506,20.0074528 25.292255,20 25.5,20 C27.7052271,20 29.714314,20.8397761 31.2249095,22.2169771 Z M31.8773484,22.880285 C32.4650521,23.5467065 32.9499315,24.3059671 33.3071674,25.1332476 C34.3678046,25.687401 34.9981242,26.8194224 34.9096539,28.0137723 L34.5602792,32.7303305 C34.5551054,32.8001764 34.554918,32.8703022 34.5597184,32.9401747 C34.6154962,33.7520506 35.3188684,34.3649893 36.1307443,34.3092116 C37.1051633,34.2422668 37.883476,33.4715805 37.9600123,32.497868 L38.4835386,25.83745 C38.4959074,25.6800914 38.4958379,25.5220021 38.4833307,25.3646545 C38.3520457,23.7130098 36.9066955,22.4805148 35.2550508,22.6117999 L31.8773484,22.880285 Z M6.75390522,34.3632808 C4.91796841,32.6054703 4,30.4843752 4,27.9999997 C4,25.9062481 4.68133701,24.04297 6.04401102,22.4101529 C7.40668503,20.777347 9.14879105,19.718751 11.2703145,19.2343791 C10.6012163,18.2656211 10.2666745,17.1875092 10.2666745,16.0000013 C10.2666745,14.3437594 10.8786437,12.9296895 12.1026113,11.7578195 C13.3265643,10.5859356 14.8034817,9.99999364 16.5333343,9.99999364 C18.0836845,9.99999364 19.4381993,10.4843796 20.5968787,11.4531235 C21.5597228,9.20312768 23.0978342,7.39844379 25.2111984,6.03907188 C27.3245626,4.67968596 29.6541748,4 32.2000058,4 C35.6597257,4 38.613543,5.17186993 41.0614592,7.51562379 C43.5093755,9.85937764 44.7333343,12.6875035 44.7333343,16.0000013 C44.7333343,16.2031273 44.7170144,16.5390712 44.6843762,17.0078192 C46.61007,17.8671812 48.1440975,19.1562591 49.2864585,20.874997 C50.4288195,22.5937489 51,24.4687534 51,26.5000006 C51,29.3906253 49.9269966,31.8632813 47.7809897,33.9179702 C45.6349829,35.9726547 43.0524311,37 40.0333343,37 L13.3999971,37 C10.8052109,37 8.58984204,36.1210934 6.75390522,34.3632808 Z M25.5,36 C29.6421356,36 33,32.6421356 33,28.5 C33,24.3578644 29.6421356,21 25.5,21 C21.3578644,21 18,24.3578644 18,28.5 C18,32.6421356 21.3578644,36 25.5,36 Z M25.5,34 C22.4624339,34 20,31.5375661 20,28.5 C20,25.4624339 22.4624339,23 25.5,23 C28.5375661,23 31,25.4624339 31,28.5 C31,31.5375661 28.5375661,34 25.5,34 Z M35,15 C36.6568542,15 38,13.6568542 38,12 C38,10.3431458 36.6568542,9 35,9 C33.3431458,9 32,10.3431458 32,12 C32,13.6568542 33.3431458,15 35,15 Z" id="AC-Icon-Copy"></path>
                </g>
            </g>
        </g>
    </g>
</svg>