<?xml version="1.0" encoding="UTF-8"?>
<svg width="15px" height="15px" viewBox="0 0 15 15" version="1.1" xmlns="http://www.w3.org/2000/svg" xmlns:xlink="http://www.w3.org/1999/xlink">
    <!-- Generator: Sketch 47.1 (45422) - http://www.bohemiancoding.com/sketch -->
    <title>entrance</title>
    <desc>Created with Sketch.</desc>
    <defs></defs>
    <g id="Page-1" stroke="none" stroke-width="1" fill="none" fill-rule="evenodd">
        <g id="Icons" fill-rule="nonzero" fill="#000000">
            <g id="entrance">
                <path d="M7.054,9.639 C6.8645139,9.83518944 6.86722381,10.1470424 7.06009071,10.3399093 C7.25295761,10.5327762 7.56481056,10.5354861 7.761,10.346 L10.428,7.669 C10.4750209,7.62209787 10.5014469,7.55841363 10.5014469,7.492 C10.5014469,7.42558637 10.4750209,7.36190213 10.428,7.315 L10.428,7.315 L7.761,4.639 C7.56481056,4.4495139 7.25295761,4.45222381 7.06009071,4.64509071 C6.86722381,4.83795761 6.8645139,5.14981056 7.054,5.346 L8.7,7 L2,7 C1.72385763,7 1.5,7.22385763 1.5,7.5 C1.5,7.77614237 1.72385763,8 2,8 L8.7,8 L7.054,9.639 Z M12.5,1 L6,1 C5.72385763,1 5.5,1.22385763 5.5,1.5 C5.5,1.77614237 5.72385763,2 6,2 L12,2 C12.2761424,2 12.5,2.22385763 12.5,2.5 L12.5,12.5 C12.5,12.7761424 12.2761424,13 12,13 L5.75,13 C5.47385763,13 5.25,13.2238576 5.25,13.5 C5.25,13.7761424 5.47385763,14 5.75,14 L12.5,14 C13.0522847,14 13.5,13.5522847 13.5,13 L13.5,2 C13.5,1.44771525 13.0522847,1 12.5,1 Z" id="Shape"></path>
            </g>
        </g>
    </g>
</svg>